Coordinates
version=1
nRows=24
nColumns=24
inDegrees=yes

Units are S.I. units (second, meters, Newtons, ...)
Angles are in degrees.

endheader
time	pelvis_tilt	pelvis_list	pelvis_rotation	pelvis_tx	pelvis_ty	pelvis_tz	hip_flexion_r	hip_adduction_r	hip_rotation_r	knee_angle_r	ankle_angle_r	subtalar_angle_r	mtp_angle_r	hip_flexion_l	hip_adduction_l	hip_rotation_l	knee_angle_l	ankle_angle_l	subtalar_angle_l	mtp_angle_l	lumbar_extension	lumbar_bending	lumbar_rotation
      1.05433333	     -2.91774267	     -2.96364107	     -4.93965863	     -0.01088987	      0.96984358	      0.30880274	    -11.02716410	      6.09382794	     -4.18250984	    -10.33648335	     14.20448140	      2.22241386	      6.15742665	     26.27368432	     -2.33579750	     -6.25288265	      1.53003662	      0.43471732	     -0.90106172	     -1.25755074	     -1.43536931	      7.14404945	      7.05091510
      1.05850000	     -2.97780721	     -2.87898780	     -4.99137425	     -0.00484919	      0.96926397	      0.30857235	    -11.04384181	      5.92741605	     -4.16338723	    -10.88495084	     14.18755930	      2.20737055	      6.17510627	     26.24363791	     -2.19710896	     -6.26188255	      1.45985719	      0.27260348	     -1.09386256	     -1.18077194	     -1.32841451	      7.02867548	      7.09389120
      1.06266667	     -3.06134575	     -2.80705735	     -5.05393973	      0.00118083	      0.96870191	      0.30831597	    -10.99296306	      5.76689620	     -4.15696176	    -11.51766570	     14.18029640	      2.23356020	      6.21942645	     26.22225020	     -2.07566890	     -6.17268582	      1.36373984	      0.05725334	     -1.47445405	     -1.05132919	     -1.19795715	      6.96497705	      7.18880883
      1.06683333	     -3.13102611	     -2.71401310	     -5.10291496	      0.00725998	      0.96821056	      0.30806449	    -10.95256084	      5.58902225	     -4.13703876	    -12.15299624	     14.12765028	      2.20285167	      6.27701538	     26.19374120	     -1.93249314	     -6.09279623	      1.20146860	     -0.22054561	     -1.86784593	     -0.92038206	     -1.07272122	      6.85486243	      7.24854798
      1.07100000	     -3.22614638	     -2.61208682	     -5.14988838	      0.01335756	      0.96774179	      0.30780931	    -10.86319160	      5.40525988	     -4.09942772	    -12.82515589	     14.04075047	      2.13580804	      6.35258591	     26.19653371	     -1.78405780	     -5.98758761	      0.98349315	     -0.53251402	     -2.31471478	     -0.78112710	     -0.91844660	      6.74026465	      7.30589665
      1.07516667	     -3.32295360	     -2.50579050	     -5.19341024	      0.01948652	      0.96732550	      0.30755270	    -10.75033503	      5.21785452	     -4.05814874	    -13.53681048	     13.92371954	      2.03062706	      6.44950089	     26.19842309	     -1.63327265	     -5.86055022	      0.72980255	     -0.90386487	     -2.82622135	     -0.63018793	     -0.74492174	      6.61183915	      7.35618403
      1.07933333	     -3.41538143	     -2.39072287	     -5.22771018	      0.02564140	      0.96695810	      0.30727957	    -10.62159204	      5.02225341	     -4.01645500	    -14.28231235	     13.76649789	      1.90466141	      6.57276075	     26.19604832	     -1.47146523	     -5.70664650	      0.44182367	     -1.32008137	     -3.37698764	     -0.46577638	     -0.57572531	      6.47576115	      7.39743861
      1.08350000	     -3.51852556	     -2.26582614	     -5.25768701	      0.03181770	      0.96663094	      0.30699416	    -10.45622849	      4.81718401	     -3.97051508	    -15.06827581	     13.57382534	      1.75400396	      6.71982866	     26.20775778	     -1.30102676	     -5.54302000	      0.11996976	     -1.78530459	     -3.95109022	     -0.29539387	     -0.39167695	      6.33143875	      7.43114355
      1.08766667	     -3.63038450	     -2.13922309	     -5.28209203	      0.03801144	      0.96634238	      0.30670229	    -10.25463936	      4.61266821	     -3.92045237	    -15.89980981	     13.33442818	      1.57565555	      6.90721989	     26.23075757	     -1.12917486	     -5.36157678	     -0.22989613	     -2.28187795	     -4.55922813	     -0.10555419	     -0.18995288	      6.17960930	      7.45675343
      1.09183333	     -3.73596078	     -1.99672886	     -5.29575140	      0.04423194	      0.96610728	      0.30638911	    -10.03577486	      4.39105367	     -3.87723788	    -16.76808010	     13.05649719	      1.38575212	      7.10882730	     26.25151130	     -0.93867506	     -5.18385015	     -0.60493407	     -2.82326634	     -5.15468496	      0.07291636	      0.00832428	      6.01378310	      7.46983604
      1.09600000	     -3.85127381	     -1.85140456	     -5.30252926	      0.05046456	      0.96590762	      0.30605391	     -9.77500495	      4.16626533	     -3.83906302	    -17.68653943	     12.72532410	      1.17852821	      7.34055175	     26.28657757	     -0.74441447	     -4.99263305	     -1.00410317	     -3.38419584	     -5.76092307	      0.25271818	      0.21974139	      5.84366887	      7.47412458
      1.10016667	     -3.90587768	     -1.67006768	     -5.27751655	      0.05677073	      0.96581311	      0.30565267	     -9.55813325	      3.88374158	     -3.91231417	    -18.62087499	     12.20195488	      1.05843047	     11.25803347	     26.25620924	     -0.49593121	     -4.81093593	     -1.40851387	     -3.98479172	     -6.38850536	      2.94987722	      0.37498429	      5.61820920	      7.42620147
      1.10433333	     -4.04339802	     -1.51174899	     -5.28744866	      0.06301572	      0.96568597	      0.30532283	     -9.20790119	      3.65080478	     -3.82542792	    -19.64549839	     11.83155768	      0.72697704	     11.31041529	     26.33069031	     -0.29948899	     -4.66972684	     -1.86369490	     -4.56031146	     -6.89892049	      2.94400365	      0.61916380	      5.43518353	      7.44687894
      1.10850000	     -4.14701775	     -1.33358268	     -5.26562368	      0.06929341	      0.96563166	      0.30492982	     -8.86756387	      3.38754513	     -3.81175790	    -20.70212194	     11.33917668	      0.49196951	     11.41180992	     26.36735791	     -0.06560675	     -4.48505824	     -2.32055305	     -5.13457774	     -7.45719299	      2.94659986	      0.83130777	      5.22813701	      7.42632704
      1.11266667	     -4.25158907	     -1.14497206	     -5.23850998	      0.07557719	      0.96561664	      0.30451274	     -8.49054808	      3.10842178	     -3.80908523	    -21.81124629	     10.79177089	      0.27543846	     11.55723094	     26.40998453	      0.17946493	     -4.31313724	     -2.79412626	     -5.69109651	     -7.97744527	      2.95518773	      1.04779643	      5.00308640	      7.39502167
      1.11683333	     -4.33158673	     -0.94058835	     -5.19691399	      0.08187514	      0.96566583	      0.30406614	     -8.10809906	      2.80577663	     -3.83310895	    -22.96487954	     10.18479233	      0.07071610	     11.75299135	     26.43053600	      0.44637430	     -4.15000891	     -3.28159207	     -6.22112360	     -8.47027039	      2.96779214	      1.24042875	      4.76057261	      7.35099248
      1.12100000	     -4.41833167	     -0.72261171	     -5.15076688	      0.08817416	      0.96574933	      0.30359571	     -7.68153524	      2.48347900	     -3.86653567	    -24.16845933	      9.50883409	     -0.12018752	     11.98731664	     26.46449685	      0.72624261	     -4.00812077	     -3.78730291	     -6.71214413	     -8.91069955	      2.98080667	      1.44360367	      4.50414225	      7.30121710
      1.12516667	     -4.49723999	     -0.49692036	     -5.09461747	      0.09446617	      0.96587161	      0.30310462	     -7.23006654	      2.14928786	     -3.90806432	    -25.41755905	      8.76662797	     -0.30973557	     12.25962125	     26.49650886	      1.01627011	     -3.87663195	     -4.31058518	     -7.15575485	     -9.31216093	      2.99232112	      1.63889666	      4.23314778	      7.24452804
      1.12933333	     -4.52457342	     -0.23311333	     -5.01561665	      0.10077856	      0.96607339	      0.30254467	     -6.80387443	      1.75053232	     -4.02080298	    -26.69372484	      7.89943437	     -0.51133514	     18.00707035	     26.48179412	      1.35993812	     -3.75988535	     -4.85476548	     -7.53231063	     -9.72444379	      3.22784425	      1.76842245	      3.91211032	      7.16764506
      1.13350000	     -4.57379023	      0.00945792	     -4.94760098	      0.10705554	      0.96630202	      0.30202412	     -6.32264985	      1.38721530	     -4.06480128	    -28.01647635	      6.99574731	     -0.71751015	     18.03653976	     26.48563804	      1.66750626	     -3.67659564	     -5.39514907	     -7.86187853	     -9.96597767	      3.21902256	      1.93238324	      3.62349101	      7.10744386
      1.13766667	     -4.62666405	      0.26410100	     -4.86174361	      0.11329480	      0.96653026	      0.30144985	     -5.80073622	      1.00359663	     -4.13299377	    -29.38928743	      6.06791555	     -0.86737145	     18.13195293	     26.51348275	      1.99694688	     -3.58367789	     -5.97817169	     -8.13974073	    -10.29451446	      3.20355016	      2.09067851	      3.32049497	      7.03350717
      1.14183333	     -4.64200740	      0.54200495	     -4.77733905	      0.11954228	      0.96683764	      0.30086572	     -5.28719527	      0.58216061	     -4.20736153	    -30.80076153	      5.05408682	     -1.01835628	     18.23583889	     26.47264204	      2.35103807	     -3.50803466	     -6.50716169	     -8.34783133	    -10.49157865	      3.18742050	      2.21627684	      2.98527695	      6.95341990
      1.14600000	     -4.68016967	      0.81564503	     -4.67426980	      0.12571936	      0.96712441	      0.30024147	     -4.71766424	      0.16437548	     -4.28817911	    -32.24388997	      3.98363755	     -1.12597876	     18.42702835	     26.48305223	      2.70707201	     -3.42909101	     -7.09116488	     -8.51371048	    -10.75985573	      3.15725547	      2.35120842	      2.66049081	      6.86279531
      1.15016667	     -4.67014636	      1.11410799	     -4.57837699	      0.13189947	      0.96749948	      0.29962517	     -4.17059517	     -0.29163145	     -4.36034496	    -33.71944404	      2.84640955	     -1.28269344	     18.57434863	     26.40672844	      3.08699981	     -3.37406073	     -7.60833607	     -8.59633550	    -10.88114434	      3.13288129	      2.43976700	      2.30701219	      6.77497396
